<?xml version="1.0" ?><!DOCTYPE svg  PUBLIC '-//W3C//DTD SVG 1.0//EN'  'http://www.w3.org/TR/2001/REC-SVG-20010904/DTD/svg10.dtd'><svg enable-background="new 0 0 128 128" height="128px" id="Layer_1" version="1.0" viewBox="0 0 128 128" width="128px" xml:space="preserve" xmlns="http://www.w3.org/2000/svg" xmlns:xlink="http://www.w3.org/1999/xlink"><g><g><path d="M100.271,27.722c-1.149-1.15-1.74-2.714-1.662-4.405c0.019-0.407,0.077-0.808,0.17-1.202L87.258,33.637    c0.558,0.238,1.072,0.579,1.515,1.021c1.873,1.872,1.874,4.92,0,6.795c-0.908,0.908-2.114,1.407-3.397,1.407    s-2.49-0.5-3.398-1.407c-0.448-0.449-0.782-0.968-1.016-1.52l-2.018,2.019c0.558,0.238,1.072,0.579,1.514,1.021    c1.873,1.874,1.873,4.923-0.001,6.796c-0.905,0.906-2.111,1.405-3.395,1.405c-1.284,0-2.492-0.5-3.399-1.408    c-0.448-0.449-0.782-0.967-1.016-1.518l-2.197,2.198c0.816,0.264,1.573,0.695,2.197,1.32c2.141,2.143,2.14,5.63-0.002,7.774    c-1.038,1.038-2.418,1.608-3.885,1.608c-1.469,0-2.849-0.572-3.888-1.609c-0.636-0.636-1.059-1.396-1.317-2.198l-2.397,2.397    c0.815,0.264,1.571,0.695,2.194,1.319c1.038,1.037,1.61,2.417,1.61,3.886s-0.572,2.85-1.61,3.888    c-1.038,1.039-2.418,1.61-3.886,1.61c-1.468,0-2.848-0.571-3.886-1.61c-0.635-0.636-1.059-1.396-1.317-2.197l-7.289,7.289    c0.815,0.264,1.571,0.696,2.194,1.32c1.037,1.036,1.609,2.416,1.61,3.884s-0.572,2.849-1.611,3.887    c-1.036,1.037-2.416,1.609-3.884,1.609s-2.848-0.571-3.886-1.609c-0.635-0.636-1.059-1.396-1.317-2.197l-2.397,2.398    c0.815,0.264,1.571,0.695,2.195,1.319c1.038,1.039,1.61,2.419,1.61,3.888s-0.572,2.85-1.61,3.887    c-1.038,1.038-2.417,1.609-3.884,1.609c-1.469,0-2.85-0.572-3.889-1.612c-0.624-0.622-1.055-1.378-1.319-2.193l-2.396,2.396    c0.816,0.264,1.572,0.694,2.196,1.317c2.142,2.142,2.143,5.63,0.002,7.775c-1.04,1.038-2.42,1.609-3.888,1.609    c-1.468,0-2.849-0.571-3.887-1.609c-0.635-0.636-1.058-1.396-1.316-2.198l-2.348,2.348c0.816,0.264,1.572,0.695,2.196,1.319    c2.142,2.143,2.142,5.63-0.001,7.772c-1.038,1.038-2.418,1.609-3.885,1.609c-1.468,0-2.848-0.571-3.887-1.61    c-0.624-0.623-1.055-1.379-1.319-2.194L0.527,120.368c-0.401,0.398-0.645,1.148-0.47,1.639c0.313,0.882,0.975,2.273,2.317,3.616    c1.345,1.343,2.738,2.006,3.619,2.318c0.492,0.176,1.239-0.066,1.639-0.466l98.274-98.274c-0.497,0.122-1.005,0.192-1.515,0.192    C102.812,29.394,101.349,28.8,100.271,27.722z"/><path d="M127.94,5.992c-0.32-0.89-0.99-2.299-2.312-3.624c-1.322-1.322-2.729-1.99-3.619-2.309    c-0.49-0.178-1.237,0.061-1.636,0.461l-12.625,12.625c0.493-0.119,0.995-0.188,1.5-0.188c1.579,0,3.042,0.593,4.12,1.669    c1.484,1.486,1.966,3.621,1.48,5.632L127.48,7.627C127.881,7.228,128.118,6.484,127.94,5.992z"/><path d="M109.248,14.958c-1.209,0-2.422,0.519-3.327,1.424l-3.893,3.895c-0.863,0.863-1.368,1.975-1.421,3.132    c-0.052,1.122,0.331,2.151,1.078,2.899c0.7,0.7,1.661,1.086,2.706,1.086c1.21,0,2.422-0.52,3.326-1.425l3.895-3.893    c1.756-1.757,1.909-4.464,0.341-6.034C111.254,15.343,110.293,14.958,109.248,14.958z M109.572,21.981l-1.949,1.945    c-0.535,0.537-1.396,0.55-1.918,0.026l-0.946-0.946c-0.524-0.524-0.513-1.382,0.025-1.919l1.946-1.949    c0.537-0.537,1.396-0.55,1.923-0.026l0.945,0.947C110.121,20.582,110.11,21.443,109.572,21.981z"/><path d="M19.927,109.427c1.363-1.363,1.363-3.581,0.001-4.944c-0.66-0.66-1.537-1.023-2.47-1.023    c-0.008,0-0.016,0.002-0.023,0.002c-0.926,0.007-1.795,0.368-2.451,1.021c-0.655,0.656-1.016,1.525-1.021,2.451    c0,0.008-0.002,0.015-0.002,0.021c0,0.934,0.363,1.811,1.023,2.471C16.305,110.748,18.606,110.747,19.927,109.427z"/><path d="M29.171,100.186c1.361-1.364,1.362-3.584-0.001-4.946c-0.661-0.659-1.539-1.022-2.473-1.022    c-0.007,0-0.014,0.002-0.021,0.002c-0.925,0.006-1.794,0.366-2.45,1.021c-0.675,0.676-1.014,1.562-1.02,2.449    c-0.006,0.903,0.332,1.809,1.019,2.497C25.546,101.505,27.851,101.506,29.171,100.186z"/><path d="M38.463,90.894c0.66-0.66,1.024-1.538,1.024-2.473s-0.364-1.812-1.024-2.474c-0.66-0.66-1.537-1.023-2.471-1.023    c-0.008,0-0.015,0.002-0.022,0.002c-0.926,0.006-1.796,0.367-2.452,1.021c-0.654,0.656-1.016,1.525-1.021,2.452    c0,0.007-0.002,0.014-0.002,0.021c0,0.934,0.363,1.811,1.023,2.469C34.841,92.214,37.141,92.216,38.463,90.894z"/><path d="M47.752,81.598c0.662-0.66,1.025-1.538,1.025-2.472c0-0.933-0.364-1.811-1.025-2.471c-0.66-0.661-1.537-1.024-2.47-1.024    c-0.007,0-0.014,0.002-0.021,0.002c-0.925,0.006-1.796,0.366-2.452,1.022c-0.675,0.676-1.014,1.562-1.019,2.449    c-0.006,0.902,0.333,1.807,1.02,2.494C44.13,82.919,46.434,82.918,47.752,81.598z"/><path d="M61.938,67.416c0.661-0.661,1.024-1.539,1.024-2.474c0-0.934-0.364-1.812-1.024-2.471c-0.66-0.66-1.538-1.024-2.471-1.024    c-0.007,0-0.014,0.002-0.021,0.002c-0.926,0.005-1.797,0.367-2.452,1.023c-0.675,0.675-1.014,1.561-1.02,2.448    c-0.006,0.902,0.333,1.808,1.02,2.495C58.314,68.738,60.616,68.738,61.938,67.416z"/><path d="M71.23,58.125c1.362-1.364,1.363-3.583,0.002-4.946c-0.66-0.66-1.538-1.023-2.473-1.023c-0.008,0-0.015,0.002-0.022,0.002    c-0.926,0.006-1.797,0.367-2.452,1.023c-0.675,0.675-1.013,1.56-1.019,2.447c-0.006,0.903,0.332,1.808,1.02,2.496    C67.605,59.443,69.909,59.445,71.23,58.125z"/><path d="M79.042,48.355c1.094-1.094,1.094-2.874,0-3.968c-0.47-0.471-1.081-0.74-1.737-0.797c-0.081-0.007-0.16-0.024-0.243-0.024    c-0.749,0-1.454,0.292-1.984,0.822c-0.607,0.608-0.864,1.428-0.796,2.225c0.056,0.634,0.312,1.255,0.796,1.739    C76.135,49.41,77.983,49.411,79.042,48.355z"/><path d="M87.358,40.039c1.094-1.094,1.094-2.874,0-3.966c-0.472-0.471-1.083-0.741-1.738-0.798    c-0.081-0.007-0.16-0.024-0.243-0.024c-0.749,0-1.454,0.292-1.985,0.823c-0.607,0.608-0.864,1.428-0.796,2.225    c0.055,0.635,0.312,1.256,0.795,1.741C84.448,41.095,86.297,41.099,87.358,40.039z"/></g></g></svg>