<?xml version="1.0" ?><svg id="Layer_1" style="enable-background:new 0 0 50 50;" version="1.1" viewBox="0 0 50 50" xml:space="preserve" xmlns="http://www.w3.org/2000/svg" xmlns:xlink="http://www.w3.org/1999/xlink"><g><path d="M40,24.3c-5.4,0-10-3.9-10.8-9.2l-0.1-0.3c-1.1-6.9-7.1-11.9-14-11.9C7.3,2.9,1,9.2,1,17.1v25.9c0,2.3,1.9,4.2,4.2,4.2   h41.2c1.5,0,2.6-1.2,2.6-2.6V30.9C49,23.2,40.1,24.3,40,24.3z M6.8,44.1H3.2V31.3H6v7.3h0.8V44.1z M11.2,44.1H7.6v-5.4h0.8v-7.3   h2.1v7.3h0.8V44.1z M15.7,44.1H12v-5.4h0.8v-7.3h2.9V44.1z M20.2,44.1h-3.7V31.3h3.7V44.1z M24.6,44.1h-3.7V31.3h2.9v7.3h0.8V44.1z    M29.1,44.1h-3.7v-5.4h0.8v-7.3h2.9V44.1z M33.5,44.1h-3.7V31.3h2.9v8h0.8V44.1z M38,44.1h-3.7v-4.7h0.8v-8h2.1v7.3H38V44.1z    M42.4,44.1h-3.7v-5.4h0.8v-7.3h2.1v7.3h0.8V44.1z M46.8,44.1h-3.6v-5.4H44v-7.3h2.8V44.1z"/></g></svg>