<?xml version="1.0" ?><svg style="enable-background:new 0 0 686.174 750.188;" version="1.1" viewBox="0 0 686.174 750.188" xml:space="preserve" xmlns="http://www.w3.org/2000/svg" xmlns:xlink="http://www.w3.org/1999/xlink"><g id="saxophone_x5F_woodwind_x5F_jazz_x5F_band_x5F_instrument_x5F_music_x5F_orchestra"><g><path d="M679.323,316.185l-159.485-40.808c-5.518-1.423-12.904,5.108-8.889,9.153c12.979,13.076-2.334,83.81-2.91,122.785    c-0.763,51.679,5.341,103.411,18.168,153.665c-4.2,9.333-5.311,20.118-2.407,30.737c2.361,8.634,7.071,16.002,13.242,21.629    c-1.45,2.967-4.012,5.358-7.371,6.412c-6.879,2.157-14.024-1.881-15.907-8.769l-11.096-35.027    c10.784-12.646,15.346-30.234,10.641-47.438c-5.066-18.524-19.612-31.953-36.971-36.519c9.624-11.285,13.696-26.982,9.497-42.336    c-4.575-16.727-17.81-28.802-33.545-32.734l-2.675-8.443c8.742-9.955,12.495-23.97,8.746-37.678    c-4.055-14.827-15.846-25.502-29.828-28.873l-5.445-17.188c7.723-8.606,11.071-20.835,7.8-32.794    c-3.535-12.925-13.882-22.193-26.109-25.002l-7.101-22.416c6.27-2.49,9.801-9.345,7.98-16.005    c-1.917-7.008-9.045-11.176-16.059-9.5l-2.827-8.924c6.771-2.202,10.693-9.345,8.795-16.286    c-1.955-7.15-9.337-11.361-16.487-9.405c-0.139,0.038-0.269,0.091-0.405,0.133l-2.82-8.903c0.071-0.018,0.143-0.028,0.215-0.047    c7.15-1.955,11.361-9.337,9.406-16.487c-1.956-7.15-9.337-11.361-16.487-9.405c-0.419,0.115-0.826,0.251-1.224,0.402l-2.846-8.986    c0.353-0.067,0.707-0.137,1.06-0.233c7.15-1.956,11.361-9.337,9.406-16.487s-9.337-11.361-16.487-9.405    c-0.706,0.193-1.273,0.82-1.919,1.114l-2.139-6.7l-68.356,18.695l92.809,483.941l8.754,32.007    c20.784,75.995,99.117,121.832,175.146,101.173c75.944-20.636,120.827-99.247,100.074-175.129l-10.668-39.007l-0.117,0.032    c-10.115-38.981-14.828-77.657-14.649-116.901c0.143-31.512,14.349-80.024,44.883-83.905    C689.219,329.492,685.673,317.822,679.323,316.185z M393.344,288c5.547-1.517,11.21,0.498,14.545,4.938l-11.953,3.269    c-2.751,0.752-4.37,3.592-3.618,6.342c0.752,2.75,3.591,4.37,6.342,3.618l11.953-3.269c-0.611,5.52-4.471,10.096-10.018,11.613    c-7.309,1.999-14.882-2.321-16.881-9.63S386.036,289.999,393.344,288z M413.998,363.097c8.189-2.24,16.48,0.736,21.157,8.02    l-17.428,4.766c-3.3,0.903-5.244,4.31-4.341,7.61c0.903,3.3,4.31,5.244,7.61,4.341l17.428-4.766    c-0.592,7.655-6.039,15.077-14.228,17.317c-10.28,2.811-20.931-3.265-23.742-13.545S403.718,365.909,413.998,363.097z     M434.517,437.697c11.189-3.06,22.787,2.296,28.174,11.527l-23.172,6.337c-3.3,0.903-5.244,4.31-4.341,7.61    c0.903,3.3,4.31,5.244,7.61,4.341l23.172-6.337c0.333,11.684-7.108,21.527-18.297,24.587c-13.251,3.624-26.982-4.208-30.606-17.46    C413.432,455.051,421.265,441.321,434.517,437.697z M471.265,571.637c-16.223,4.437-33.03-5.149-37.467-21.372    c-4.437-16.223,5.15-33.036,21.374-37.473c14.176-3.877,28.911,3.372,35.222,15.562l-28.81,7.879    c-3.3,0.903-5.244,4.31-4.341,7.61c0.903,3.3,4.31,5.244,7.61,4.341l28.81-7.879C494.433,554.011,485.441,567.76,471.265,571.637z     M574.277,603.184c-10.826,2.961-21.953-1.849-27.325-11.085l22.603-6.182c3.3-0.903,5.244-4.31,4.341-7.61    c-0.903-3.3-4.31-5.244-7.61-4.341l-22.603,6.182c-0.076-10.684,6.979-20.762,17.806-23.723    c12.891-3.526,26.247,4.094,29.773,16.985C594.787,586.302,587.168,599.659,574.277,603.184z"/><path d="M256.793,65.584c2.093,1.34,4.021,2.897,5.822,4.508c1.792,1.625,3.478,3.279,4.95,5.064    c2.996,3.501,5.312,7.193,7.178,10.594c1.819,3.448,3.136,6.648,4.076,9.371c0.266,0.661,0.441,1.354,0.652,1.959    c0.188,0.595,2.647,9.742,2.647,9.742l66.806-18.271c0,0-2.76-8.792-2.938-9.292c-0.364-0.998-0.764-2.095-1.193-3.272    c-0.442-1.238-0.898-2.269-1.395-3.474c-0.509-1.183-0.997-2.452-1.622-3.764c-2.354-5.28-5.68-11.552-10.186-18.371    c-4.551-6.793-10.392-14.099-17.871-21.121c-7.471-7.006-16.584-13.766-27.451-19.023c-10.825-5.254-23.399-9.079-36.903-10.011    c-6.737-0.461-13.671-0.208-20.557,0.842c-1.726,0.22-3.434,0.601-5.149,0.933l-1.284,0.262c-0.691,0.132-0.254,0.053-0.437,0.089    l-0.109,0.028l-0.219,0.056l-0.438,0.112L219.42,2.99c-1.492,0.393-2.989,0.788-4.488,1.183c-1.434,0.427-2.859,0.816-4.302,1.286    c-5.751,1.81-11.604,3.997-17.393,6.786c-5.787,2.769-11.517,6.118-16.93,10.015c-5.403,3.914-10.458,8.384-14.914,13.173    c-4.454,4.791-22.247,47.382-24.89,49.507c-8.709,7.002-32.161,18.87-49.079,27.464l-0.287-1.05    c-1.023-3.74-5.367-5.402-9.107-4.379l-37.207,10.176c-3.979,1.088-7.56,3.228-10.124,6.46L0.736,160.917    c-1.959,2.47,0.281,5.657,3.322,4.825l83.777-22.913c3.74-1.023,6.669-4.537,5.646-8.277l-0.529-1.935    c18.928-5.16,43.651-11.913,44.383-12.169c10.277-3.58,20.409-9.115,29.62-16.517c4.613-3.69,27.896-29.72,30.474-31.837    c2.584-2.108,5.23-3.862,8.087-5.394c9.33-5.826,27.036-8.815,37.449-6.941C247.928,60.804,252.626,62.863,256.793,65.584z"/></g></g><g id="Layer_1"/></svg>