<?xml version="1.0" ?><svg id="Layer_1" style="enable-background:new 0 0 50 50;" version="1.1" viewBox="0 0 50 50" xml:space="preserve" xmlns="http://www.w3.org/2000/svg" xmlns:xlink="http://www.w3.org/1999/xlink"><g><path d="M48.3,4.6l0.2-0.2c0.4-0.4,0.4-0.9,0-1.3c-0.5-0.3-1.4-2-2.3-1l-0.2,0.2l-0.4-0.4c-1.1-1.1-2.8,0.8-2.8,2.3l-1.6,1.4   l-0.7-0.7l0,0L41,4.3l-0.4-0.4c-0.4-0.4-1-0.4-1.4,0L39,4.1c-0.4,0.4-0.4,1,0,1.4l0.4,0.4l0.6-0.6l0,0l0.7,0.7l-2.5,2.3l-0.6-0.6   l0,0l0.6-0.6l-0.4-0.4c-0.4-0.4-1-0.4-1.4,0L36.1,7c-0.4,0.4-0.4,1,0,1.4l0.4,0.4L37,8.3l0.6,0.6L24.2,21   c-3.5-2.1-7.8-1.7-10.5,0.8c0.8,1.5,0.1,3.8-1.7,5.6c-2.1,2.1-5.6,2.9-6.7,0.5c-4.1,4.4-4.3,11.6,0.1,16.4c4.7,5.2,12.6,5.5,17.2,1   c-2.5-1.1-1.6-4.6,0.5-6.7c1.8-1.8,4.1-2.4,5.6-1.7c2.6-2.8,2.9-7.1,0.8-10.5l11.5-12.7l0.5,0.5L41,14.8l0.4,0.4   c0.4,0.4,1,0.4,1.4,0l0.2-0.2c0.4-0.4,0.4-1,0-1.4l-0.4-0.4l-0.6,0.6l-0.6-0.6l2.3-2.5l0.7,0.7L44,11.8l0.4,0.4   c0.4,0.4,1,0.4,1.4,0L46,12c0.4-0.4,0.4-1,0-1.4l-0.4-0.4L45,10.8l-0.7-0.7l2.1-2.3c0.7,0,1.3-0.3,1.8-0.8l0.4-0.4   C49.6,5.6,48.2,4.5,48.3,4.6z M28.4,24.9c-1.1,1.2,4.1-4.3-11.1,11.5h0l1.7,1.7l-1.7,1.7l-6.6-6.6l1.7-1.7l1.7,1.7l0,0   C30,18,24.5,23.3,25.7,22.1C43.6,4.8,43,5.4,43.1,5.4c0.5-0.3,1,0.4,0.6,0.8v0L26.4,22.8C25.2,24,30.7,18.7,14.9,34l1.7,1.7   c15.3-15.8,10-10.4,11.2-11.5L44.4,6.9h0c0.4-0.4,1.1,0.1,0.8,0.6C45.2,7.6,45.8,6.9,28.4,24.9z"/><path d="M3.2,23.4L34.3,5.4c0.7-0.4,0.9-1.3,0.5-2c-0.3-0.5-0.8-0.7-1.3-0.7c-0.3,0-0.5,0.1-0.7,0.2L1.7,20.9   c-0.7,0.4-0.9,1.3-0.5,2C1.6,23.6,2.6,23.8,3.2,23.4z M32.3,4.6l0.5,0.8L3.2,22.7l-0.5-0.8L32.3,4.6z"/></g></svg>